<svg width="1400" height="760" viewBox="0 0 1400 760" fill="none" xmlns="http://www.w3.org/2000/svg" role="img" aria-labelledby="diagram-title diagram-desc" preserveAspectRatio="xMidYMid meet">
  <title id="diagram-title">第一次 RAG 问答验证</title>
  <desc id="diagram-desc">从调试问题进入意图检测、混合检索、模型回答和可观察结果</desc>
  <defs>
    <linearGradient id="bg" x1="0" y1="0" x2="1" y2="1"><stop stop-color="#08111F"/><stop offset=".55" stop-color="#111C35"/><stop offset="1" stop-color="#17143A"/></linearGradient>
    <pattern id="grid" width="36" height="36" patternUnits="userSpaceOnUse"><path d="M36 0H0V36" fill="none" stroke="#C7D2FE" stroke-opacity=".045"/></pattern>
    <filter id="shadow" x="-25%" y="-30%" width="150%" height="170%"><feDropShadow dx="0" dy="10" stdDeviation="12" flood-color="#020617" flood-opacity=".38"/></filter>
    <marker id="arrow" viewBox="0 0 10 10" refX="8" refY="5" markerWidth="7" markerHeight="7" orient="auto"><path d="M0 0L10 5L0 10Z" fill="#60A5FA"/></marker>
    <marker id="arrowGreen" viewBox="0 0 10 10" refX="8" refY="5" markerWidth="7" markerHeight="7" orient="auto"><path d="M0 0L10 5L0 10Z" fill="#34D399"/></marker>
    <marker id="arrowOrange" viewBox="0 0 10 10" refX="8" refY="5" markerWidth="7" markerHeight="7" orient="auto"><path d="M0 0L10 5L0 10Z" fill="#FB923C"/></marker>
  </defs>
  <rect width="1400" height="760" rx="28" fill="url(#bg)"/>
  <rect width="1400" height="760" rx="28" fill="url(#grid)"/>
  <text x="52" y="58" fill="#F8FAFC" font-family="Inter, PingFang SC, Microsoft YaHei, sans-serif" font-size="28" font-weight="760">第一次 RAG 问答验证</text>
  <text x="52" y="88" fill="#94A3B8" font-family="Inter, PingFang SC, Microsoft YaHei, sans-serif" font-size="14">从调试问题进入意图检测、混合检索、模型回答和可观察结果</text>
  <g filter="url(#shadow)"><rect x="-2" y="122" width="184" height="64" rx="17" fill="#0D2A47" stroke="#38BDF8" stroke-opacity=".7"/><text x="90" y="151" text-anchor="middle" fill="#E0F2FE" font-family="Inter, PingFang SC, sans-serif" font-size="16" font-weight="720">管理员</text></g><path d="M90 186V690" stroke="#38BDF8" stroke-opacity=".28" stroke-width="1.5" stroke-dasharray="6 7"/><g filter="url(#shadow)"><rect x="242" y="122" width="184" height="64" rx="17" fill="#1E2455" stroke="#818CF8" stroke-opacity=".7"/><text x="334" y="151" text-anchor="middle" fill="#EEF2FF" font-family="Inter, PingFang SC, sans-serif" font-size="16" font-weight="720">调试页</text></g><path d="M334 186V690" stroke="#818CF8" stroke-opacity=".28" stroke-width="1.5" stroke-dasharray="6 7"/><g filter="url(#shadow)"><rect x="486" y="122" width="184" height="64" rx="17" fill="#2D1D46" stroke="#C084FC" stroke-opacity=".7"/><text x="578" y="151" text-anchor="middle" fill="#FAF5FF" font-family="Inter, PingFang SC, sans-serif" font-size="16" font-weight="720">ChatService</text></g><path d="M578 186V690" stroke="#C084FC" stroke-opacity=".28" stroke-width="1.5" stroke-dasharray="6 7"/><g filter="url(#shadow)"><rect x="730" y="122" width="184" height="64" rx="17" fill="#3A2416" stroke="#FB923C" stroke-opacity=".7"/><text x="822" y="151" text-anchor="middle" fill="#FFF7ED" font-family="Inter, PingFang SC, sans-serif" font-size="16" font-weight="720">IntentDetector</text></g><path d="M822 186V690" stroke="#FB923C" stroke-opacity=".28" stroke-width="1.5" stroke-dasharray="6 7"/><g filter="url(#shadow)"><rect x="974" y="122" width="184" height="64" rx="17" fill="#0D2A47" stroke="#38BDF8" stroke-opacity=".7"/><text x="1066" y="151" text-anchor="middle" fill="#E0F2FE" font-family="Inter, PingFang SC, sans-serif" font-size="16" font-weight="720">RAG + Lucene</text></g><path d="M1066 186V690" stroke="#38BDF8" stroke-opacity=".28" stroke-width="1.5" stroke-dasharray="6 7"/><g filter="url(#shadow)"><rect x="1218" y="122" width="184" height="64" rx="17" fill="#2D1D46" stroke="#C084FC" stroke-opacity=".7"/><text x="1310" y="151" text-anchor="middle" fill="#FAF5FF" font-family="Inter, PingFang SC, sans-serif" font-size="16" font-weight="720">Chat 模型</text></g><path d="M1310 186V690" stroke="#C084FC" stroke-opacity=".28" stroke-width="1.5" stroke-dasharray="6 7"/><path d="M90 230H326" stroke="#60A5FA" stroke-width="2"  marker-end="url(#arrow)"/><rect x="170" y="200" width="84" height="22" rx="11" fill="#0B1220"/><text x="212" y="215" text-anchor="middle" fill="#BFDBFE" font-family="Inter, PingFang SC, sans-serif" font-size="11.5">输入可验证问题</text><path d="M334 293H570" stroke="#60A5FA" stroke-width="2"  marker-end="url(#arrow)"/><rect x="414" y="263" width="84" height="22" rx="11" fill="#0B1220"/><text x="456" y="278" text-anchor="middle" fill="#BFDBFE" font-family="Inter, PingFang SC, sans-serif" font-size="11.5">POST 调试请求</text><path d="M578 356H814" stroke="#60A5FA" stroke-width="2"  marker-end="url(#arrow)"/><rect x="658" y="326" width="84" height="22" rx="11" fill="#0B1220"/><text x="700" y="341" text-anchor="middle" fill="#BFDBFE" font-family="Inter, PingFang SC, sans-serif" font-size="11.5">检测意图</text><path d="M822 419H586" stroke="#FB923C" stroke-width="2" stroke-dasharray="7 6" marker-end="url(#arrowOrange)"/><rect x="658" y="389" width="84" height="22" rx="11" fill="#0B1220"/><text x="700" y="404" text-anchor="middle" fill="#FDBA74" font-family="Inter, PingFang SC, sans-serif" font-size="11.5">未命中，进入 RAG</text><path d="M578 482H1058" stroke="#60A5FA" stroke-width="2"  marker-end="url(#arrow)"/><rect x="780" y="452" width="84" height="22" rx="11" fill="#0B1220"/><text x="822" y="467" text-anchor="middle" fill="#BFDBFE" font-family="Inter, PingFang SC, sans-serif" font-size="11.5">检索上下文</text><path d="M1066 545H586" stroke="#34D399" stroke-width="2" stroke-dasharray="7 6" marker-end="url(#arrowGreen)"/><rect x="780" y="515" width="84" height="22" rx="11" fill="#0B1220"/><text x="822" y="530" text-anchor="middle" fill="#6EE7B7" font-family="Inter, PingFang SC, sans-serif" font-size="11.5">相关切片 + 引用</text><path d="M578 608H1302" stroke="#60A5FA" stroke-width="2"  marker-end="url(#arrow)"/><rect x="902" y="578" width="84" height="22" rx="11" fill="#0B1220"/><text x="944" y="593" text-anchor="middle" fill="#BFDBFE" font-family="Inter, PingFang SC, sans-serif" font-size="11.5">问题 + 上下文</text><path d="M1310 671H342" stroke="#34D399" stroke-width="2" stroke-dasharray="7 6" marker-end="url(#arrowGreen)"/><rect x="780" y="641" width="84" height="22" rx="11" fill="#0B1220"/><text x="822" y="656" text-anchor="middle" fill="#6EE7B7" font-family="Inter, PingFang SC, sans-serif" font-size="11.5">SSE token</text><path d="M334 734H98" stroke="#34D399" stroke-width="2" stroke-dasharray="7 6" marker-end="url(#arrowGreen)"/><rect x="157" y="704" width="110" height="22" rx="11" fill="#0B1220"/><text x="212" y="719" text-anchor="middle" fill="#6EE7B7" font-family="Inter, PingFang SC, sans-serif" font-size="11.5">回答 + 引用 + Trace</text>
  <text x="1348" y="735" text-anchor="end" fill="#64748B" font-family="Inter, PingFang SC, sans-serif" font-size="11">AI 智能套件 · 0.3.2</text>
</svg>