<svg width="1400" height="760" viewBox="0 0 1400 760" fill="none" xmlns="http://www.w3.org/2000/svg" role="img" aria-labelledby="diagram-title diagram-desc" preserveAspectRatio="xMidYMid meet">
  <title id="diagram-title">意图 Pipeline 执行时序</title>
  <desc id="diagram-desc">每一步消费上一步的文章集合，并把数量、参数和候选标题写入 Trace</desc>
  <defs>
    <linearGradient id="bg" x1="0" y1="0" x2="1" y2="1"><stop stop-color="#08111F"/><stop offset=".55" stop-color="#111C35"/><stop offset="1" stop-color="#17143A"/></linearGradient>
    <pattern id="grid" width="36" height="36" patternUnits="userSpaceOnUse"><path d="M36 0H0V36" fill="none" stroke="#C7D2FE" stroke-opacity=".045"/></pattern>
    <filter id="shadow" x="-25%" y="-30%" width="150%" height="170%"><feDropShadow dx="0" dy="10" stdDeviation="12" flood-color="#020617" flood-opacity=".38"/></filter>
    <marker id="arrow" viewBox="0 0 10 10" refX="8" refY="5" markerWidth="7" markerHeight="7" orient="auto"><path d="M0 0L10 5L0 10Z" fill="#60A5FA"/></marker>
    <marker id="arrowGreen" viewBox="0 0 10 10" refX="8" refY="5" markerWidth="7" markerHeight="7" orient="auto"><path d="M0 0L10 5L0 10Z" fill="#34D399"/></marker>
    <marker id="arrowOrange" viewBox="0 0 10 10" refX="8" refY="5" markerWidth="7" markerHeight="7" orient="auto"><path d="M0 0L10 5L0 10Z" fill="#FB923C"/></marker>
  </defs>
  <rect width="1400" height="760" rx="28" fill="url(#bg)"/>
  <rect width="1400" height="760" rx="28" fill="url(#grid)"/>
  <text x="52" y="58" fill="#F8FAFC" font-family="Inter, PingFang SC, Microsoft YaHei, sans-serif" font-size="28" font-weight="760">意图 Pipeline 执行时序</text>
  <text x="52" y="88" fill="#94A3B8" font-family="Inter, PingFang SC, Microsoft YaHei, sans-serif" font-size="14">每一步消费上一步的文章集合，并把数量、参数和候选标题写入 Trace</text>
  <g filter="url(#shadow)"><rect x="-2" y="122" width="184" height="64" rx="17" fill="#1E2455" stroke="#818CF8" stroke-opacity=".7"/><text x="90" y="151" text-anchor="middle" fill="#EEF2FF" font-family="Inter, PingFang SC, sans-serif" font-size="16" font-weight="720">PipelineExecutor</text></g><path d="M90 186V690" stroke="#818CF8" stroke-opacity=".28" stroke-width="1.5" stroke-dasharray="6 7"/><g filter="url(#shadow)"><rect x="303" y="122" width="184" height="64" rx="17" fill="#0D2A47" stroke="#38BDF8" stroke-opacity=".7"/><text x="395" y="151" text-anchor="middle" fill="#E0F2FE" font-family="Inter, PingFang SC, sans-serif" font-size="16" font-weight="720">PostQuerySupport</text></g><path d="M395 186V690" stroke="#38BDF8" stroke-opacity=".28" stroke-width="1.5" stroke-dasharray="6 7"/><g filter="url(#shadow)"><rect x="608" y="122" width="184" height="64" rx="17" fill="#2D1D46" stroke="#C084FC" stroke-opacity=".7"/><text x="700" y="151" text-anchor="middle" fill="#FAF5FF" font-family="Inter, PingFang SC, sans-serif" font-size="16" font-weight="720">Processor 1</text></g><path d="M700 186V690" stroke="#C084FC" stroke-opacity=".28" stroke-width="1.5" stroke-dasharray="6 7"/><g filter="url(#shadow)"><rect x="913" y="122" width="184" height="64" rx="17" fill="#3A2416" stroke="#FB923C" stroke-opacity=".7"/><text x="1005" y="151" text-anchor="middle" fill="#FFF7ED" font-family="Inter, PingFang SC, sans-serif" font-size="16" font-weight="720">Processor 2</text></g><path d="M1005 186V690" stroke="#FB923C" stroke-opacity=".28" stroke-width="1.5" stroke-dasharray="6 7"/><g filter="url(#shadow)"><rect x="1218" y="122" width="184" height="64" rx="17" fill="#0B352F" stroke="#34D399" stroke-opacity=".7"/><text x="1310" y="151" text-anchor="middle" fill="#ECFDF5" font-family="Inter, PingFang SC, sans-serif" font-size="16" font-weight="720">PipelineTrace</text></g><path d="M1310 186V690" stroke="#34D399" stroke-opacity=".28" stroke-width="1.5" stroke-dasharray="6 7"/><path d="M90 230H387" stroke="#60A5FA" stroke-width="2"  marker-end="url(#arrow)"/><rect x="200.5" y="200" width="84" height="22" rx="11" fill="#0B1220"/><text x="242.5" y="215" text-anchor="middle" fill="#BFDBFE" font-family="Inter, PingFang SC, sans-serif" font-size="11.5">查询公开文章</text><path d="M395 292H98" stroke="#34D399" stroke-width="2" stroke-dasharray="7 6" marker-end="url(#arrowGreen)"/><rect x="193.5" y="262" width="98" height="22" rx="11" fill="#0B1220"/><text x="242.5" y="277" text-anchor="middle" fill="#6EE7B7" font-family="Inter, PingFang SC, sans-serif" font-size="11.5">初始 List&lt;Post&gt;</text><path d="M90 354H1302" stroke="#34D399" stroke-width="2"  marker-end="url(#arrowGreen)"/><rect x="648" y="324" width="104" height="22" rx="11" fill="#0B1220"/><text x="700" y="339" text-anchor="middle" fill="#6EE7B7" font-family="Inter, PingFang SC, sans-serif" font-size="11.5">记录 fetch_posts</text><path d="M90 416H692" stroke="#60A5FA" stroke-width="2"  marker-end="url(#arrow)"/><rect x="328" y="386" width="134" height="22" rx="11" fill="#0B1220"/><text x="395" y="401" text-anchor="middle" fill="#BFDBFE" font-family="Inter, PingFang SC, sans-serif" font-size="11.5">候选 + query + params</text><path d="M700 478H98" stroke="#34D399" stroke-width="2" stroke-dasharray="7 6" marker-end="url(#arrowGreen)"/><rect x="353" y="448" width="84" height="22" rx="11" fill="#0B1220"/><text x="395" y="463" text-anchor="middle" fill="#6EE7B7" font-family="Inter, PingFang SC, sans-serif" font-size="11.5">处理后候选</text><path d="M90 540H1302" stroke="#34D399" stroke-width="2"  marker-end="url(#arrowGreen)"/><rect x="633" y="510" width="134" height="22" rx="11" fill="#0B1220"/><text x="700" y="525" text-anchor="middle" fill="#6EE7B7" font-family="Inter, PingFang SC, sans-serif" font-size="11.5">记录 in / out / posts</text><path d="M90 602H997" stroke="#60A5FA" stroke-width="2"  marker-end="url(#arrow)"/><rect x="505.5" y="572" width="84" height="22" rx="11" fill="#0B1220"/><text x="547.5" y="587" text-anchor="middle" fill="#BFDBFE" font-family="Inter, PingFang SC, sans-serif" font-size="11.5">上一步结果</text><path d="M1005 664H98" stroke="#34D399" stroke-width="2" stroke-dasharray="7 6" marker-end="url(#arrowGreen)"/><rect x="505.5" y="634" width="84" height="22" rx="11" fill="#0B1220"/><text x="547.5" y="649" text-anchor="middle" fill="#6EE7B7" font-family="Inter, PingFang SC, sans-serif" font-size="11.5">最终文章集合</text><path d="M90 726H1302" stroke="#34D399" stroke-width="2"  marker-end="url(#arrowGreen)"/><rect x="658" y="696" width="84" height="22" rx="11" fill="#0B1220"/><text x="700" y="711" text-anchor="middle" fill="#6EE7B7" font-family="Inter, PingFang SC, sans-serif" font-size="11.5">记录最终步骤</text>
  <text x="1348" y="735" text-anchor="end" fill="#64748B" font-family="Inter, PingFang SC, sans-serif" font-size="11">AI 智能套件 · 0.2.23</text>
</svg>