<svg width="1600" height="900" viewBox="0 0 1600 900" fill="none" xmlns="http://www.w3.org/2000/svg">
  <defs>
    <linearGradient id="bg" x1="70" y1="20" x2="1530" y2="880" gradientUnits="userSpaceOnUse"><stop stop-color="#0B1220"/><stop offset=".55" stop-color="#111C35"/><stop offset="1" stop-color="#17143A"/></linearGradient>
    <linearGradient id="core" x1="560" y1="370" x2="1010" y2="540" gradientUnits="userSpaceOnUse"><stop stop-color="#2563EB"/><stop offset=".55" stop-color="#4F46E5"/><stop offset="1" stop-color="#7C3AED"/></linearGradient>
    <pattern id="grid" width="40" height="40" patternUnits="userSpaceOnUse"><path d="M40 0H0V40" stroke="#C7D2FE" stroke-opacity=".04"/></pattern>
    <filter id="shadow" x="-25%" y="-35%" width="150%" height="180%"><feDropShadow dx="0" dy="12" stdDeviation="15" flood-color="#020617" flood-opacity=".35"/></filter>
    <marker id="blue" viewBox="0 0 10 10" refX="8" refY="5" markerWidth="7" markerHeight="7" orient="auto"><path d="M0 0L10 5L0 10Z" fill="#60A5FA"/></marker>
    <marker id="purple" viewBox="0 0 10 10" refX="8" refY="5" markerWidth="7" markerHeight="7" orient="auto"><path d="M0 0L10 5L0 10Z" fill="#A78BFA"/></marker>
    <marker id="green" viewBox="0 0 10 10" refX="8" refY="5" markerWidth="7" markerHeight="7" orient="auto"><path d="M0 0L10 5L0 10Z" fill="#34D399"/></marker>
    <marker id="orange" viewBox="0 0 10 10" refX="8" refY="5" markerWidth="7" markerHeight="7" orient="auto"><path d="M0 0L10 5L0 10Z" fill="#FB923C"/></marker>
  </defs>
  <rect width="1600" height="900" rx="32" fill="url(#bg)"/><rect width="1600" height="900" rx="32" fill="url(#grid)"/>

  <text x="64" y="66" fill="#F8FAFC" font-family="Inter, PingFang SC, sans-serif" font-size="30" font-weight="760">RAG 检索管线</text>
  <text x="64" y="94" fill="#94A3B8" font-family="Inter, PingFang SC, sans-serif" font-size="15">增强步骤可独立关闭 · 单步失败自动降级 · ChatService 整体兜底 15s</text>
  <g transform="translate(1160 55)" font-family="Inter, PingFang SC, sans-serif"><circle cx="5" cy="5" r="5" fill="#60A5FA"/><text x="18" y="10" fill="#CBD5E1" font-size="13">主检索流</text><circle cx="105" cy="5" r="5" fill="#A78BFA"/><text x="118" y="10" fill="#CBD5E1" font-size="13">LLM / 向量</text><circle cx="226" cy="5" r="5" fill="#FB923C"/><text x="239" y="10" fill="#CBD5E1" font-size="13">降级路径</text></g>

  <!-- Input and enhancement -->
  <g font-family="Inter, PingFang SC, sans-serif" filter="url(#shadow)">
    <rect x="64" y="142" width="235" height="92" rx="19" fill="#102A43" stroke="#38BDF8" stroke-opacity=".62"/><circle cx="94" cy="172" r="15" fill="#38BDF8" fill-opacity=".18"/><path d="M87 172h14M94 165v14" stroke="#7DD3FC" stroke-width="2"/><text x="119" y="177" fill="#E0F2FE" font-size="18" font-weight="700">原始问题</text><text x="86" y="207" fill="#7DD3FC" font-size="14">Query + 对话历史</text>
    <rect x="355" y="142" width="250" height="92" rx="19" fill="#332044" stroke="#C084FC" stroke-opacity=".6"/><rect x="377" y="158" width="74" height="24" rx="12" fill="#FB923C" fill-opacity=".18"/><text x="390" y="175" fill="#FDBA74" font-size="12" font-weight="700">OPTIONAL</text><text x="377" y="207" fill="#FAF5FF" font-size="18" font-weight="700">Query Rewrite</text><text x="544" y="207" fill="#FDBA74" font-size="13" font-weight="650">2s</text>
    <rect x="661" y="142" width="250" height="92" rx="19" fill="#1E1B4B" stroke="#818CF8" stroke-opacity=".62"/><rect x="683" y="158" width="74" height="24" rx="12" fill="#FB923C" fill-opacity=".18"/><text x="696" y="175" fill="#FDBA74" font-size="12" font-weight="700">OPTIONAL</text><text x="683" y="207" fill="#EEF2FF" font-size="18" font-weight="700">HyDE</text><text x="850" y="207" fill="#FDBA74" font-size="13" font-weight="650">3s</text>
    <rect x="967" y="142" width="250" height="92" rx="19" fill="#15274A" stroke="#6366F1" stroke-opacity=".62"/><text x="989" y="174" fill="#A5B4FC" font-size="12" font-weight="700" letter-spacing="1">VECTORIZE</text><text x="989" y="205" fill="#EEF2FF" font-size="18" font-weight="700">Embedding</text><text x="989" y="225" fill="#A5B4FC" font-size="12">Query 或假设性回答</text>
    <rect x="1273" y="142" width="263" height="92" rx="19" fill="#082F49" stroke="#0EA5E9" stroke-opacity=".62"/><text x="1295" y="174" fill="#7DD3FC" font-size="12" font-weight="700" letter-spacing="1">SEARCH MODE</text><text x="1295" y="205" fill="#F0F9FF" font-size="18" font-weight="700">keyword / vector / hybrid</text>
  </g>
  <path d="M299 188H353M605 188H659M911 188H965M1217 188H1271" stroke="#A78BFA" stroke-width="2.3" marker-end="url(#purple)"/>
  <path d="M480 235V265H110V238" stroke="#FB923C" stroke-width="1.8" stroke-dasharray="6 6" marker-end="url(#orange)"/><text x="247" y="282" fill="#FDBA74" font-family="Inter, PingFang SC, sans-serif" font-size="12">关闭 / 超时：保留原 Query</text>
  <path d="M786 235V272H700V238" stroke="#FB923C" stroke-width="1.8" stroke-dasharray="6 6" marker-end="url(#orange)"/><text x="745" y="289" fill="#FDBA74" font-family="Inter, PingFang SC, sans-serif" font-size="12">失败：直接编码 Query</text>

  <!-- Parallel retrieval -->
  <text x="64" y="337" fill="#A5B4FC" font-family="Inter, PingFang SC, sans-serif" font-size="12" font-weight="700" letter-spacing="2">PARALLEL RETRIEVAL &amp; FUSION</text>
  <rect x="64" y="354" width="1472" height="250" rx="26" fill="#0F172A" fill-opacity=".55" stroke="#475569"/>
  <g font-family="Inter, PingFang SC, sans-serif" filter="url(#shadow)">
    <rect x="94" y="388" width="250" height="82" rx="17" fill="#0C3046" stroke="#38BDF8" stroke-opacity=".55"/><text x="118" y="420" fill="#E0F2FE" font-size="17" font-weight="700">BM25 关键词召回</text><text x="118" y="445" fill="#7DD3FC" font-size="13">SmartChineseAnalyzer</text>
    <rect x="94" y="492" width="250" height="82" rx="17" fill="#17234D" stroke="#818CF8" stroke-opacity=".55"/><text x="118" y="524" fill="#EEF2FF" font-size="17" font-weight="700">HNSW 向量召回</text><text x="118" y="549" fill="#A5B4FC" font-size="13">语义相似度候选</text>
    <rect x="405" y="422" width="248" height="116" rx="20" fill="url(#core)"/><text x="429" y="456" fill="#C7D2FE" font-size="12" font-weight="700" letter-spacing="1">HYBRID RETRIEVER</text><text x="429" y="488" fill="white" font-size="20" font-weight="750">RRF 融合排序</text><text x="429" y="514" fill="#E0E7FF" font-size="13">统一关键词与向量排名</text>
    <rect x="714" y="388" width="250" height="82" rx="17" fill="#15274A" stroke="#60A5FA" stroke-opacity=".5"/><text x="738" y="420" fill="#EFF6FF" font-size="17" font-weight="700">原 Query 补充召回</text><text x="738" y="445" fill="#93C5FD" font-size="13">避免查询改写偏差</text>
    <rect x="714" y="492" width="250" height="82" rx="17" fill="#332044" stroke="#C084FC" stroke-opacity=".5"/><text x="738" y="524" fill="#FAF5FF" font-size="17" font-weight="700">跨语言二次检索</text><text x="738" y="549" fill="#D8B4FE" font-size="13">翻译 + BM25 · 3s</text>
    <rect x="1025" y="422" width="230" height="116" rx="20" fill="#102A43" stroke="#38BDF8" stroke-opacity=".58"/><text x="1049" y="456" fill="#BAE6FD" font-size="12" font-weight="700" letter-spacing="1">RESULT MERGE</text><text x="1049" y="488" fill="#F0F9FF" font-size="19" font-weight="750">归一化 · 去重</text><text x="1049" y="514" fill="#7DD3FC" font-size="13">按分数截取候选集</text>
    <rect x="1316" y="422" width="190" height="116" rx="20" fill="#3B2518" stroke="#FB923C" stroke-opacity=".58"/><text x="1338" y="456" fill="#FDBA74" font-size="12" font-weight="700">OPTIONAL · 2s</text><text x="1338" y="488" fill="#FFF7ED" font-size="19" font-weight="750">Rerank</text><text x="1338" y="514" fill="#FDBA74" font-size="13">失败保留原排序</text>
  </g>
  <path d="M344 429H403M344 533H403M653 480H712M964 429H1023M964 533H1023M1255 480H1314" stroke="#60A5FA" stroke-width="2.2" marker-end="url(#blue)"/>

  <!-- Output -->
  <path d="M1411 538V650" stroke="#34D399" stroke-width="2.4" marker-end="url(#green)"/>
  <g font-family="Inter, PingFang SC, sans-serif" filter="url(#shadow)">
    <rect x="900" y="664" width="280" height="104" rx="20" fill="#0B3B36" stroke="#34D399" stroke-opacity=".6"/><text x="926" y="699" fill="#6EE7B7" font-size="12" font-weight="700" letter-spacing="1">RETRIEVAL RESULT</text><text x="926" y="732" fill="#ECFDF5" font-size="19" font-weight="750">阈值过滤 + Top-N</text><text x="926" y="755" fill="#6EE7B7" font-size="13">文档、分数、来源元数据</text>
    <rect x="1230" y="664" width="306" height="104" rx="20" fill="#12372E" stroke="#10B981" stroke-opacity=".65"/><text x="1256" y="699" fill="#6EE7B7" font-size="12" font-weight="700" letter-spacing="1">RAG CONTEXT</text><text x="1256" y="732" fill="#ECFDF5" font-size="19" font-weight="750">上下文 + 文章引用</text><text x="1256" y="755" fill="#6EE7B7" font-size="13">交给 LLM 生成最终回答</text>
  </g>
  <path d="M1180 716H1228" stroke="#34D399" stroke-width="2.3" marker-end="url(#green)"/>
  <g transform="translate(64 674)" font-family="Inter, PingFang SC, sans-serif"><rect width="760" height="128" rx="20" fill="#1C1A26" stroke="#FB923C" stroke-opacity=".45"/><text x="24" y="34" fill="#FDBA74" font-size="13" font-weight="750" letter-spacing="1">DEGRADATION CONTRACT</text><text x="24" y="65" fill="#FED7AA" font-size="15">Query Rewrite / HyDE / 跨语言 / Rerank 均设置独立超时</text><text x="24" y="92" fill="#CBD5E1" font-size="14">可选步骤失败时回退至上一份有效结果，不阻断整次回答</text><text x="24" y="115" fill="#94A3B8" font-size="13">Embedding 未配置时：hybrid 自动降级 keyword；vector 模式返回空检索上下文</text></g>
</svg>
