<svg width="1600" height="900" viewBox="0 0 1600 900" fill="none" xmlns="http://www.w3.org/2000/svg">
  <defs>
    <linearGradient id="bg" x1="70" y1="20" x2="1530" y2="880" gradientUnits="userSpaceOnUse"><stop stop-color="#0B1220"/><stop offset=".55" stop-color="#111C35"/><stop offset="1" stop-color="#17143A"/></linearGradient>
    <linearGradient id="endpoint" x1="230" y1="130" x2="560" y2="220" gradientUnits="userSpaceOnUse"><stop stop-color="#0C4A6E"/><stop offset="1" stop-color="#1E3A8A"/></linearGradient>
    <linearGradient id="core" x1="620" y1="130" x2="970" y2="220" gradientUnits="userSpaceOnUse"><stop stop-color="#3730A3"/><stop offset="1" stop-color="#6D28D9"/></linearGradient>
    <pattern id="grid" width="40" height="40" patternUnits="userSpaceOnUse"><path d="M40 0H0V40" stroke="#C7D2FE" stroke-opacity=".04"/></pattern>
    <filter id="shadow" x="-25%" y="-35%" width="150%" height="180%"><feDropShadow dx="0" dy="10" stdDeviation="13" flood-color="#020617" flood-opacity=".34"/></filter>
    <marker id="blue" viewBox="0 0 10 10" refX="8" refY="5" markerWidth="7" markerHeight="7" orient="auto"><path d="M0 0L10 5L0 10Z" fill="#60A5FA"/></marker>
    <marker id="purple" viewBox="0 0 10 10" refX="8" refY="5" markerWidth="7" markerHeight="7" orient="auto"><path d="M0 0L10 5L0 10Z" fill="#A78BFA"/></marker>
    <marker id="green" viewBox="0 0 10 10" refX="8" refY="5" markerWidth="7" markerHeight="7" orient="auto"><path d="M0 0L10 5L0 10Z" fill="#34D399"/></marker>
    <marker id="orange" viewBox="0 0 10 10" refX="8" refY="5" markerWidth="7" markerHeight="7" orient="auto"><path d="M0 0L10 5L0 10Z" fill="#FB923C"/></marker>
  </defs>
  <rect width="1600" height="900" rx="32" fill="url(#bg)"/><rect width="1600" height="900" rx="32" fill="url(#grid)"/>
  <text x="64" y="66" fill="#F8FAFC" font-family="Inter, PingFang SC, sans-serif" font-size="30" font-weight="760">一次访客问答如何流转</text>
  <text x="64" y="94" fill="#94A3B8" font-family="Inter, PingFang SC, sans-serif" font-size="15">同一套公开 API 与 SSE 协议 · 意图命中走 Pipeline · 未命中回到 RAG · 引用、用量与日志统一收口</text>
  <g transform="translate(1210 55)" font-family="Inter, PingFang SC, sans-serif"><circle cx="5" cy="5" r="5" fill="#60A5FA"/><text x="18" y="10" fill="#CBD5E1" font-size="13">请求</text><circle cx="91" cy="5" r="5" fill="#A78BFA"/><text x="104" y="10" fill="#CBD5E1" font-size="13">AI 编排</text><circle cx="202" cy="5" r="5" fill="#34D399"/><text x="215" y="10" fill="#CBD5E1" font-size="13">响应 / 记录</text></g>

  <!-- Participants -->
  <g font-family="Inter, PingFang SC, sans-serif" filter="url(#shadow)">
    <rect x="48" y="130" width="144" height="66" rx="17" fill="#102A43" stroke="#38BDF8" stroke-opacity=".6"/><circle cx="78" cy="163" r="14" fill="#38BDF8" fill-opacity=".18"/><path d="M72 167c3-6 9-6 12 0M78 157a4 4 0 1 0 0-8 4 4 0 0 0 0 8Z" stroke="#7DD3FC" stroke-width="2"/><text x="101" y="169" fill="#E0F2FE" font-size="16" font-weight="700">访客</text>
    <rect x="230" y="130" width="164" height="66" rx="17" fill="url(#endpoint)" stroke="#38BDF8" stroke-opacity=".65"/><text x="312" y="158" text-anchor="middle" fill="#E0F2FE" font-size="15" font-weight="700">PublicChat</text><text x="312" y="179" text-anchor="middle" fill="#7DD3FC" font-size="12">Endpoint</text>
    <rect x="432" y="130" width="164" height="66" rx="17" fill="#3B2518" stroke="#FB923C" stroke-opacity=".62"/><text x="514" y="158" text-anchor="middle" fill="#FFF7ED" font-size="15" font-weight="700">限流 / 配额</text><text x="514" y="179" text-anchor="middle" fill="#FDBA74" font-size="12">Guard</text>
    <rect x="634" y="130" width="164" height="66" rx="17" fill="url(#core)" stroke="#818CF8" stroke-opacity=".72"/><text x="716" y="158" text-anchor="middle" fill="white" font-size="15" font-weight="700">ChatService</text><text x="716" y="179" text-anchor="middle" fill="#C7D2FE" font-size="12">统一编排</text>
    <rect x="836" y="130" width="164" height="66" rx="17" fill="#251B4B" stroke="#A78BFA" stroke-opacity=".65"/><text x="918" y="158" text-anchor="middle" fill="#F5F3FF" font-size="15" font-weight="700">IntentDetector</text><text x="918" y="179" text-anchor="middle" fill="#C4B5FD" font-size="12">规则 + LLM 兜底</text>
    <rect x="1038" y="130" width="164" height="66" rx="17" fill="#17234D" stroke="#818CF8" stroke-opacity=".62"/><text x="1120" y="158" text-anchor="middle" fill="#EEF2FF" font-size="15" font-weight="700">检索分支</text><text x="1120" y="179" text-anchor="middle" fill="#A5B4FC" font-size="12">Intent / RAG</text>
    <rect x="1240" y="130" width="144" height="66" rx="17" fill="#332044" stroke="#C084FC" stroke-opacity=".65"/><text x="1312" y="158" text-anchor="middle" fill="#FAF5FF" font-size="15" font-weight="700">LlmClient</text><text x="1312" y="179" text-anchor="middle" fill="#D8B4FE" font-size="12">流式生成</text>
    <rect x="1422" y="130" width="130" height="66" rx="17" fill="#0B3B36" stroke="#34D399" stroke-opacity=".62"/><text x="1487" y="158" text-anchor="middle" fill="#ECFDF5" font-size="15" font-weight="700">日志 / Trace</text><text x="1487" y="179" text-anchor="middle" fill="#6EE7B7" font-size="12">观测收口</text>
  </g>

  <!-- Lifelines -->
  <g stroke="#64748B" stroke-opacity=".55" stroke-width="1.5" stroke-dasharray="6 7"><path d="M120 196V824"/><path d="M312 196V824"/><path d="M514 196V824"/><path d="M716 196V824"/><path d="M918 196V824"/><path d="M1120 196V824"/><path d="M1312 196V824"/><path d="M1487 196V824"/></g>
  <g font-family="Inter, PingFang SC, sans-serif" font-size="12" font-weight="700"><circle cx="80" cy="238" r="14" fill="#0EA5E9"/><text x="80" y="242" text-anchor="middle" fill="white">1</text><circle cx="474" cy="292" r="14" fill="#FB923C"/><text x="474" y="296" text-anchor="middle" fill="white">2</text><circle cx="676" cy="346" r="14" fill="#6366F1"/><text x="676" y="350" text-anchor="middle" fill="white">3</text><circle cx="878" cy="400" r="14" fill="#8B5CF6"/><text x="878" y="404" text-anchor="middle" fill="white">4</text></g>

  <!-- Initial messages -->
  <path d="M120 238H310" stroke="#60A5FA" stroke-width="2.2" marker-end="url(#blue)"/><text x="145" y="228" fill="#BAE6FD" font-family="Inter, PingFang SC, sans-serif" font-size="13">POST /chat/stream · 问题 + 历史</text>
  <path d="M312 292H512" stroke="#FB923C" stroke-width="2.2" marker-end="url(#orange)"/><text x="337" y="282" fill="#FED7AA" font-family="Inter, PingFang SC, sans-serif" font-size="13">功能开关 · IP 限流 · 模型额度</text>
  <path d="M514 318H314" stroke="#34D399" stroke-width="1.8" stroke-dasharray="6 5" marker-end="url(#green)"/><text x="390" y="311" fill="#6EE7B7" font-family="Inter, PingFang SC, sans-serif" font-size="12">允许请求</text>
  <path d="M312 346H714" stroke="#60A5FA" stroke-width="2.2" marker-end="url(#blue)"/><text x="430" y="336" fill="#BAE6FD" font-family="Inter, PingFang SC, sans-serif" font-size="13">chatStreamWithCitations(...)</text>
  <path d="M716 400H916" stroke="#A78BFA" stroke-width="2.2" marker-end="url(#purple)"/><text x="740" y="390" fill="#C4B5FD" font-family="Inter, PingFang SC, sans-serif" font-size="13">检测最高优先级意图</text>

  <!-- Alternative frame -->
  <rect x="656" y="432" width="704" height="260" rx="21" fill="#0F172A" fill-opacity=".7" stroke="#818CF8" stroke-opacity=".55"/>
  <path d="M656 476H1360" stroke="#475569"/>
  <rect x="656" y="432" width="196" height="30" rx="15" fill="#312E81"/><text x="754" y="452" text-anchor="middle" fill="#E0E7FF" font-family="Inter, PingFang SC, sans-serif" font-size="12" font-weight="750">ALT · ROUTING RESULT</text>
  <rect x="676" y="487" width="138" height="24" rx="12" fill="#7C3AED" fill-opacity=".22"/><text x="745" y="504" text-anchor="middle" fill="#D8B4FE" font-family="Inter, PingFang SC, sans-serif" font-size="12" font-weight="700">命中 IntentRoute</text>
  <path d="M918 524H1118" stroke="#A78BFA" stroke-width="2.2" marker-end="url(#purple)"/><text x="942" y="516" fill="#C4B5FD" font-family="Inter, PingFang SC, sans-serif" font-size="12">PipelineExecutor</text>
  <rect x="1049" y="540" width="142" height="46" rx="13" fill="#251B4B" stroke="#A78BFA" stroke-opacity=".55"/><text x="1120" y="560" text-anchor="middle" fill="#F5F3FF" font-family="Inter, PingFang SC, sans-serif" font-size="12" font-weight="700">公开文章</text><text x="1120" y="577" text-anchor="middle" fill="#C4B5FD" font-family="Inter, PingFang SC, sans-serif" font-size="11">Filter · Sort</text>
  <path d="M1120 596H1310" stroke="#A78BFA" stroke-width="2.2" marker-end="url(#purple)"/><text x="1138" y="588" fill="#D8B4FE" font-family="Inter, PingFang SC, sans-serif" font-size="12">Posts + outputTemplate</text>

  <rect x="676" y="617" width="112" height="24" rx="12" fill="#0EA5E9" fill-opacity=".2"/><text x="732" y="634" text-anchor="middle" fill="#7DD3FC" font-family="Inter, PingFang SC, sans-serif" font-size="12" font-weight="700">未命中意图</text>
  <path d="M918 654H1118" stroke="#60A5FA" stroke-width="2.2" marker-end="url(#blue)"/><text x="951" y="646" fill="#7DD3FC" font-family="Inter, PingFang SC, sans-serif" font-size="12">RAGPipeline</text>
  <path d="M1120 670H1310" stroke="#A78BFA" stroke-width="2.2" marker-end="url(#purple)"/><text x="1140" y="663" fill="#C4B5FD" font-family="Inter, PingFang SC, sans-serif" font-size="12">Top-N 上下文 + 引用</text>

  <!-- Streaming response -->
  <path d="M1312 730H718" stroke="#34D399" stroke-width="2.3" marker-end="url(#green)"/><text x="945" y="720" fill="#6EE7B7" font-family="Inter, PingFang SC, sans-serif" font-size="13">Flux&lt;token&gt; · citations</text>
  <path d="M716 764H314" stroke="#34D399" stroke-width="2.3" marker-end="url(#green)"/><text x="432" y="754" fill="#6EE7B7" font-family="Inter, PingFang SC, sans-serif" font-size="13">统一 ChatResponse</text>
  <path d="M312 798H122" stroke="#34D399" stroke-width="2.3" marker-end="url(#green)"/><text x="146" y="788" fill="#A7F3D0" font-family="Inter, PingFang SC, sans-serif" font-size="13">SSE · citations · token · logId · [DONE]</text>
  <path d="M312 824H1485" stroke="#34D399" stroke-width="1.8" stroke-dasharray="7 6" marker-end="url(#green)"/><text x="850" y="815" fill="#6EE7B7" font-family="Inter, PingFang SC, sans-serif" font-size="12">异步记录：问题、回答、引用、模型、用量、反馈与检索阶段</text>
</svg>
