<svg width="1400" height="650" viewBox="0 0 1400 650" fill="none" xmlns="http://www.w3.org/2000/svg" role="img" aria-labelledby="diagram-title diagram-desc" preserveAspectRatio="xMidYMid meet">
  <title id="diagram-title">文档体系地图</title>
  <desc id="diagram-desc">从产品入口进入不同读者路径，每个页面只解决一个主要问题</desc>
  <defs>
    <linearGradient id="bg" x1="0" y1="0" x2="1" y2="1"><stop stop-color="#08111F"/><stop offset=".55" stop-color="#111C35"/><stop offset="1" stop-color="#17143A"/></linearGradient>
    <pattern id="grid" width="36" height="36" patternUnits="userSpaceOnUse"><path d="M36 0H0V36" fill="none" stroke="#C7D2FE" stroke-opacity=".045"/></pattern>
    <filter id="shadow" x="-25%" y="-30%" width="150%" height="170%"><feDropShadow dx="0" dy="10" stdDeviation="12" flood-color="#020617" flood-opacity=".38"/></filter>
    <marker id="arrow" viewBox="0 0 10 10" refX="8" refY="5" markerWidth="7" markerHeight="7" orient="auto"><path d="M0 0L10 5L0 10Z" fill="#60A5FA"/></marker>
    <marker id="arrowGreen" viewBox="0 0 10 10" refX="8" refY="5" markerWidth="7" markerHeight="7" orient="auto"><path d="M0 0L10 5L0 10Z" fill="#34D399"/></marker>
    <marker id="arrowOrange" viewBox="0 0 10 10" refX="8" refY="5" markerWidth="7" markerHeight="7" orient="auto"><path d="M0 0L10 5L0 10Z" fill="#FB923C"/></marker>
  </defs>
  <rect width="1400" height="650" rx="28" fill="url(#bg)"/>
  <rect width="1400" height="650" rx="28" fill="url(#grid)"/>
  <text x="52" y="58" fill="#F8FAFC" font-family="Inter, PingFang SC, Microsoft YaHei, sans-serif" font-size="28" font-weight="760">文档体系地图</text>
  <text x="52" y="88" fill="#94A3B8" font-family="Inter, PingFang SC, Microsoft YaHei, sans-serif" font-size="14">从产品入口进入不同读者路径，每个页面只解决一个主要问题</text>
  <path d="M570 166 C415 166,415 341,260 341" stroke="#60A5FA" stroke-width="2.2" fill="none" marker-end="url(#arrow)"/>
  
<path d="M570 166 C522.5 166,522.5 341,475 341" stroke="#60A5FA" stroke-width="2.2" fill="none" marker-end="url(#arrow)"/>
  
<path d="M700 207 C700 253.5,595 253.5,595 300" stroke="#FB923C" stroke-width="2.2" fill="none" marker-end="url(#arrowOrange)"/>
  
<path d="M700 207 C700 253.5,810 253.5,810 300" stroke="#60A5FA" stroke-width="2.2" fill="none" marker-end="url(#arrow)"/>
  
<path d="M830 166 C880 166,880 341,930 341" stroke="#60A5FA" stroke-width="2.2" fill="none" marker-end="url(#arrow)"/>
  
<path d="M830 166 C987.5 166,987.5 341,1145 341" stroke="#60A5FA" stroke-width="2.2" fill="none" marker-end="url(#arrow)"/>
  
<path d="M380 382 C380 431,520 431,520 480" stroke="#34D399" stroke-width="2.2" fill="none" marker-end="url(#arrowGreen)"/>
  
<path d="M595 382 C595 431,520 431,520 480" stroke="#34D399" stroke-width="2.2" fill="none" marker-end="url(#arrowGreen)"/>
  
<path d="M810 382 C810 431,880 431,880 480" stroke="#60A5FA" stroke-width="2.2" fill="none" marker-end="url(#arrow)"/>
  
<path d="M1025 382 C1025 431,880 431,880 480" stroke="#60A5FA" stroke-width="2.2" fill="none" marker-end="url(#arrow)"/>
  
<path d="M1145 341 C1087.5 341,1087.5 520,1030 520" stroke="#60A5FA" stroke-width="2.2" fill="none" marker-end="url(#arrow)"/>
  
<g filter="url(#shadow)">
    <rect x="570" y="125" width="260" height="82" rx="18" fill="#1E2455" stroke="#818CF8" stroke-opacity=".68"/>
    
    <text x="700" y="164" text-anchor="middle" fill="#EEF2FF" font-family="Inter, PingFang SC, Microsoft YaHei, sans-serif" font-size="17" font-weight="720">README</text>
    <text x="700" y="190" text-anchor="middle" fill="#A5B4FC" font-family="Inter, PingFang SC, Microsoft YaHei, sans-serif" font-size="12.5">产品入口与快速导航</text>
  </g>
<g filter="url(#shadow)">
    <rect x="70" y="300" width="190" height="82" rx="18" fill="#0B352F" stroke="#34D399" stroke-opacity=".68"/>
    
    <text x="165" y="339" text-anchor="middle" fill="#ECFDF5" font-family="Inter, PingFang SC, Microsoft YaHei, sans-serif" font-size="17" font-weight="720">快速开始</text>
    <text x="165" y="365" text-anchor="middle" fill="#6EE7B7" font-family="Inter, PingFang SC, Microsoft YaHei, sans-serif" font-size="12.5">安装 · 首次问答</text>
  </g>
<g filter="url(#shadow)">
    <rect x="285" y="300" width="190" height="82" rx="18" fill="#0D2A47" stroke="#38BDF8" stroke-opacity=".68"/>
    
    <text x="380" y="339" text-anchor="middle" fill="#E0F2FE" font-family="Inter, PingFang SC, Microsoft YaHei, sans-serif" font-size="17" font-weight="720">用户手册</text>
    <text x="380" y="365" text-anchor="middle" fill="#7DD3FC" font-family="Inter, PingFang SC, Microsoft YaHei, sans-serif" font-size="12.5">功能配置与案例</text>
  </g>
<g filter="url(#shadow)">
    <rect x="500" y="300" width="190" height="82" rx="18" fill="#3A2416" stroke="#FB923C" stroke-opacity=".68"/>
    
    <text x="595" y="339" text-anchor="middle" fill="#FFF7ED" font-family="Inter, PingFang SC, Microsoft YaHei, sans-serif" font-size="17" font-weight="720">生产运维</text>
    <text x="595" y="365" text-anchor="middle" fill="#FDBA74" font-family="Inter, PingFang SC, Microsoft YaHei, sans-serif" font-size="12.5">部署 · 排障 · 升级</text>
  </g>
<g filter="url(#shadow)">
    <rect x="715" y="300" width="190" height="82" rx="18" fill="#2D1D46" stroke="#C084FC" stroke-opacity=".68"/>
    
    <text x="810" y="339" text-anchor="middle" fill="#FAF5FF" font-family="Inter, PingFang SC, Microsoft YaHei, sans-serif" font-size="17" font-weight="720">系统架构</text>
    <text x="810" y="365" text-anchor="middle" fill="#D8B4FE" font-family="Inter, PingFang SC, Microsoft YaHei, sans-serif" font-size="12.5">RAG · 意图 · 数据</text>
  </g>
<g filter="url(#shadow)">
    <rect x="930" y="300" width="190" height="82" rx="18" fill="#1E2455" stroke="#818CF8" stroke-opacity=".68"/>
    
    <text x="1025" y="339" text-anchor="middle" fill="#EEF2FF" font-family="Inter, PingFang SC, Microsoft YaHei, sans-serif" font-size="17" font-weight="720">API 参考</text>
    <text x="1025" y="365" text-anchor="middle" fill="#A5B4FC" font-family="Inter, PingFang SC, Microsoft YaHei, sans-serif" font-size="12.5">请求 · 响应 · SSE</text>
  </g>
<g filter="url(#shadow)">
    <rect x="1145" y="300" width="190" height="82" rx="18" fill="#172033" stroke="#64748B" stroke-opacity=".68"/>
    
    <text x="1240" y="339" text-anchor="middle" fill="#F1F5F9" font-family="Inter, PingFang SC, Microsoft YaHei, sans-serif" font-size="17" font-weight="720">参考资料</text>
    <text x="1240" y="365" text-anchor="middle" fill="#94A3B8" font-family="Inter, PingFang SC, Microsoft YaHei, sans-serif" font-size="12.5">配置 · 兼容矩阵</text>
  </g>
<g filter="url(#shadow)">
    <rect x="370" y="480" width="300" height="80" rx="18" fill="#0B352F" stroke="#34D399" stroke-opacity=".68"/>
    
    <text x="520" y="518" text-anchor="middle" fill="#ECFDF5" font-family="Inter, PingFang SC, Microsoft YaHei, sans-serif" font-size="17" font-weight="720">面向任务的操作路径</text>
    <text x="520" y="544" text-anchor="middle" fill="#6EE7B7" font-family="Inter, PingFang SC, Microsoft YaHei, sans-serif" font-size="12.5">让站长能够独立完成配置</text>
  </g>
<g filter="url(#shadow)">
    <rect x="730" y="480" width="300" height="80" rx="18" fill="#2D1D46" stroke="#C084FC" stroke-opacity=".68"/>
    
    <text x="880" y="518" text-anchor="middle" fill="#FAF5FF" font-family="Inter, PingFang SC, Microsoft YaHei, sans-serif" font-size="17" font-weight="720">面向事实的技术路径</text>
    <text x="880" y="544" text-anchor="middle" fill="#D8B4FE" font-family="Inter, PingFang SC, Microsoft YaHei, sans-serif" font-size="12.5">让开发者能够理解与扩展</text>
  </g>
  <text x="1348" y="625" text-anchor="end" fill="#64748B" font-family="Inter, PingFang SC, sans-serif" font-size="11">AI 智能套件 · 0.2.23</text>
</svg>