<svg width="1400" height="620" viewBox="0 0 1400 620" fill="none" xmlns="http://www.w3.org/2000/svg">
  <defs>
    <linearGradient id="bg" x1="0" y1="0" x2="1" y2="1"><stop stop-color="#08111F"/><stop offset=".55" stop-color="#111C35"/><stop offset="1" stop-color="#17143A"/></linearGradient>
    <pattern id="grid" width="36" height="36" patternUnits="userSpaceOnUse"><path d="M36 0H0V36" fill="none" stroke="#C7D2FE" stroke-opacity=".045"/></pattern>
    <filter id="shadow" x="-25%" y="-30%" width="150%" height="170%"><feDropShadow dx="0" dy="10" stdDeviation="12" flood-color="#020617" flood-opacity=".38"/></filter>
    <marker id="arrow" viewBox="0 0 10 10" refX="8" refY="5" markerWidth="7" markerHeight="7" orient="auto"><path d="M0 0L10 5L0 10Z" fill="#60A5FA"/></marker>
    <marker id="arrowGreen" viewBox="0 0 10 10" refX="8" refY="5" markerWidth="7" markerHeight="7" orient="auto"><path d="M0 0L10 5L0 10Z" fill="#34D399"/></marker>
    <marker id="arrowOrange" viewBox="0 0 10 10" refX="8" refY="5" markerWidth="7" markerHeight="7" orient="auto"><path d="M0 0L10 5L0 10Z" fill="#FB923C"/></marker>
  </defs>
  <rect width="1400" height="620" rx="28" fill="url(#bg)"/>
  <rect width="1400" height="620" rx="28" fill="url(#grid)"/>
  <text x="52" y="58" fill="#F8FAFC" font-family="Inter, PingFang SC, Microsoft YaHei, sans-serif" font-size="28" font-weight="760">索引生命周期</text>
  <text x="52" y="88" fill="#94A3B8" font-family="Inter, PingFang SC, Microsoft YaHei, sans-serif" font-size="14">索引是派生数据；失败可重试，配置或内容变化后进入待更新状态</text>
  <path d="M270 273 C310 273,310 273,350 273" stroke="#60A5FA" stroke-width="2.2" fill="none" marker-end="url(#arrow)"/>
  <rect x="282" y="249" width="56" height="22" rx="11" fill="#0B1220" stroke="#60A5FA" stroke-opacity=".35"/><text x="310" y="264" text-anchor="middle" fill="#93C5FD" font-family="Inter, PingFang SC, sans-serif" font-size="11">重建</text>
<path d="M540 273 C595 273,595 198,650 198" stroke="#34D399" stroke-width="2.2" fill="none" marker-end="url(#arrowGreen)"/>
  <rect x="567" y="211.5" width="56" height="22" rx="11" fill="#0B1220" stroke="#34D399" stroke-opacity=".35"/><text x="595" y="226.5" text-anchor="middle" fill="#6EE7B7" font-family="Inter, PingFang SC, sans-serif" font-size="11">成功</text>
<path d="M540 273 C595 273,595 393,650 393" stroke="#FB923C" stroke-width="2.2" fill="none" marker-end="url(#arrowOrange)"/>
  <rect x="567" y="309" width="56" height="22" rx="11" fill="#0B1220" stroke="#FB923C" stroke-opacity=".35"/><text x="595" y="324" text-anchor="middle" fill="#FDBA74" font-family="Inter, PingFang SC, sans-serif" font-size="11">失败</text>
<path d="M650 393 C595 393,595 273,540 273" stroke="#60A5FA" stroke-width="2.2" fill="none" marker-end="url(#arrow)"/>
  <rect x="567" y="309" width="56" height="22" rx="11" fill="#0B1220" stroke="#60A5FA" stroke-opacity=".35"/><text x="595" y="324" text-anchor="middle" fill="#93C5FD" font-family="Inter, PingFang SC, sans-serif" font-size="11">修复后重试</text>
<path d="M850 198 C920 198,920 198,990 198" stroke="#FB923C" stroke-width="2.2" fill="none" marker-end="url(#arrowOrange)"/>
  <rect x="887.5" y="174" width="65" height="22" rx="11" fill="#0B1220" stroke="#FB923C" stroke-opacity=".35"/><text x="920" y="189" text-anchor="middle" fill="#FDBA74" font-family="Inter, PingFang SC, sans-serif" font-size="11">内容/配置变化</text>
<path d="M990 198 C765 198,765 273,540 273" stroke="#60A5FA" stroke-width="2.2" fill="none" marker-end="url(#arrow)"/>
  <rect x="737" y="211.5" width="56" height="22" rx="11" fill="#0B1220" stroke="#60A5FA" stroke-opacity=".35"/><text x="765" y="226.5" text-anchor="middle" fill="#93C5FD" font-family="Inter, PingFang SC, sans-serif" font-size="11">同步/重建</text>
<path d="M850 198 C975 198,975 393,1100 393" stroke="#FB923C" stroke-width="2.2" fill="none" marker-end="url(#arrowOrange)"/>
  <rect x="947" y="271.5" width="56" height="22" rx="11" fill="#0B1220" stroke="#FB923C" stroke-opacity=".35"/><text x="975" y="286.5" text-anchor="middle" fill="#FDBA74" font-family="Inter, PingFang SC, sans-serif" font-size="11">手动清除</text>
<path d="M1100 393 C685 393,685 273,270 273" stroke="#60A5FA" stroke-width="2.2" fill="none" marker-end="url(#arrow)"/>
  
<g filter="url(#shadow)">
    <rect x="80" y="230" width="190" height="86" rx="18" fill="#172033" stroke="#64748B" stroke-opacity=".68"/>
    
    <text x="175" y="271" text-anchor="middle" fill="#F1F5F9" font-family="Inter, PingFang SC, Microsoft YaHei, sans-serif" font-size="17" font-weight="720">未索引</text>
    <text x="175" y="297" text-anchor="middle" fill="#94A3B8" font-family="Inter, PingFang SC, Microsoft YaHei, sans-serif" font-size="12.5">没有可检索切片</text>
  </g>
<g filter="url(#shadow)">
    <rect x="350" y="230" width="190" height="86" rx="18" fill="#0D2A47" stroke="#38BDF8" stroke-opacity=".68"/>
    
    <text x="445" y="271" text-anchor="middle" fill="#E0F2FE" font-family="Inter, PingFang SC, Microsoft YaHei, sans-serif" font-size="17" font-weight="720">构建中</text>
    <text x="445" y="297" text-anchor="middle" fill="#7DD3FC" font-family="Inter, PingFang SC, Microsoft YaHei, sans-serif" font-size="12.5">切片 + Embedding + 写入</text>
  </g>
<g filter="url(#shadow)">
    <rect x="650" y="155" width="200" height="86" rx="18" fill="#0B352F" stroke="#34D399" stroke-opacity=".68"/>
    
    <text x="750" y="196" text-anchor="middle" fill="#ECFDF5" font-family="Inter, PingFang SC, Microsoft YaHei, sans-serif" font-size="17" font-weight="720">可检索</text>
    <text x="750" y="222" text-anchor="middle" fill="#6EE7B7" font-family="Inter, PingFang SC, Microsoft YaHei, sans-serif" font-size="12.5">RAG 正常读取</text>
  </g>
<g filter="url(#shadow)">
    <rect x="650" y="350" width="200" height="86" rx="18" fill="#3B1A27" stroke="#FB7185" stroke-opacity=".68"/>
    
    <text x="750" y="391" text-anchor="middle" fill="#FFF1F2" font-family="Inter, PingFang SC, Microsoft YaHei, sans-serif" font-size="17" font-weight="720">构建失败</text>
    <text x="750" y="417" text-anchor="middle" fill="#FDA4AF" font-family="Inter, PingFang SC, Microsoft YaHei, sans-serif" font-size="12.5">保留错误并允许重试</text>
  </g>
<g filter="url(#shadow)">
    <rect x="990" y="155" width="200" height="86" rx="18" fill="#3A2416" stroke="#FB923C" stroke-opacity=".68"/>
    
    <text x="1090" y="196" text-anchor="middle" fill="#FFF7ED" font-family="Inter, PingFang SC, Microsoft YaHei, sans-serif" font-size="17" font-weight="720">待更新</text>
    <text x="1090" y="222" text-anchor="middle" fill="#FDBA74" font-family="Inter, PingFang SC, Microsoft YaHei, sans-serif" font-size="12.5">文章或配置已变化</text>
  </g>
<g filter="url(#shadow)">
    <rect x="1100" y="350" width="200" height="86" rx="18" fill="#172033" stroke="#64748B" stroke-opacity=".68"/>
    
    <text x="1200" y="391" text-anchor="middle" fill="#F1F5F9" font-family="Inter, PingFang SC, Microsoft YaHei, sans-serif" font-size="17" font-weight="720">清除索引</text>
    <text x="1200" y="417" text-anchor="middle" fill="#94A3B8" font-family="Inter, PingFang SC, Microsoft YaHei, sans-serif" font-size="12.5">回到未索引状态</text>
  </g>
  <text x="1348" y="595" text-anchor="end" fill="#64748B" font-family="Inter, PingFang SC, sans-serif" font-size="11">AI 智能套件 · 0.2.23</text>
</svg>