<svg width="1400" height="420" viewBox="0 0 1400 420" fill="none" xmlns="http://www.w3.org/2000/svg" role="img" aria-labelledby="diagram-title diagram-desc" preserveAspectRatio="xMidYMid meet">
  <title id="diagram-title">安装到首次成功</title>
  <desc id="diagram-desc">先验证基础能力，再建立索引，最后开放访客功能</desc>
  <defs>
    <linearGradient id="bg" x1="0" y1="0" x2="1" y2="1"><stop stop-color="#08111F"/><stop offset=".55" stop-color="#111C35"/><stop offset="1" stop-color="#17143A"/></linearGradient>
    <pattern id="grid" width="36" height="36" patternUnits="userSpaceOnUse"><path d="M36 0H0V36" fill="none" stroke="#C7D2FE" stroke-opacity=".045"/></pattern>
    <filter id="shadow" x="-25%" y="-30%" width="150%" height="170%"><feDropShadow dx="0" dy="10" stdDeviation="12" flood-color="#020617" flood-opacity=".38"/></filter>
    <marker id="arrow" viewBox="0 0 10 10" refX="8" refY="5" markerWidth="7" markerHeight="7" orient="auto"><path d="M0 0L10 5L0 10Z" fill="#60A5FA"/></marker>
    <marker id="arrowGreen" viewBox="0 0 10 10" refX="8" refY="5" markerWidth="7" markerHeight="7" orient="auto"><path d="M0 0L10 5L0 10Z" fill="#34D399"/></marker>
    <marker id="arrowOrange" viewBox="0 0 10 10" refX="8" refY="5" markerWidth="7" markerHeight="7" orient="auto"><path d="M0 0L10 5L0 10Z" fill="#FB923C"/></marker>
  </defs>
  <rect width="1400" height="420" rx="28" fill="url(#bg)"/>
  <rect width="1400" height="420" rx="28" fill="url(#grid)"/>
  <text x="52" y="58" fill="#F8FAFC" font-family="Inter, PingFang SC, Microsoft YaHei, sans-serif" font-size="28" font-weight="760">安装到首次成功</text>
  <text x="52" y="88" fill="#94A3B8" font-family="Inter, PingFang SC, Microsoft YaHei, sans-serif" font-size="14">先验证基础能力，再建立索引，最后开放访客功能</text>
  <path d="M245 213 C265 213,265 213,285 213" stroke="#60A5FA" stroke-width="2.2" fill="none" marker-end="url(#arrow)"/>
  
<path d="M475 213 C495 213,495 213,515 213" stroke="#60A5FA" stroke-width="2.2" fill="none" marker-end="url(#arrow)"/>
  
<path d="M735 213 C755 213,755 213,775 213" stroke="#60A5FA" stroke-width="2.2" fill="none" marker-end="url(#arrow)"/>
  
<path d="M965 213 C985 213,985 213,1005 213" stroke="#FB923C" stroke-width="2.2" fill="none" marker-end="url(#arrowOrange)"/>
  
<path d="M1195 213 C1215 213,1215 213,1235 213" stroke="#34D399" stroke-width="2.2" fill="none" marker-end="url(#arrowGreen)"/>
  
<g filter="url(#shadow)">
    <rect x="55" y="170" width="190" height="86" rx="18" fill="#172033" stroke="#64748B" stroke-opacity=".68"/>
    <rect x="73" y="184" width="74" height="22" rx="11" fill="#64748B" fill-opacity=".16"/><text x="84" y="200" fill="#94A3B8" font-family="Inter, PingFang SC, sans-serif" font-size="10" font-weight="750" letter-spacing=".7">STEP 1</text>
    <text x="150" y="223" text-anchor="middle" fill="#F1F5F9" font-family="Inter, PingFang SC, Microsoft YaHei, sans-serif" font-size="17" font-weight="720">安装插件 JAR</text>
    <text x="150" y="249" text-anchor="middle" fill="#94A3B8" font-family="Inter, PingFang SC, Microsoft YaHei, sans-serif" font-size="12.5">Halo Console</text>
  </g>
<g filter="url(#shadow)">
    <rect x="285" y="170" width="190" height="86" rx="18" fill="#0D2A47" stroke="#38BDF8" stroke-opacity=".68"/>
    <rect x="303" y="184" width="74" height="22" rx="11" fill="#38BDF8" fill-opacity=".16"/><text x="314" y="200" fill="#7DD3FC" font-family="Inter, PingFang SC, sans-serif" font-size="10" font-weight="750" letter-spacing=".7">STEP 2</text>
    <text x="380" y="223" text-anchor="middle" fill="#E0F2FE" font-family="Inter, PingFang SC, Microsoft YaHei, sans-serif" font-size="17" font-weight="720">状态 STARTED</text>
    <text x="380" y="249" text-anchor="middle" fill="#7DD3FC" font-family="Inter, PingFang SC, Microsoft YaHei, sans-serif" font-size="12.5">确认插件加载</text>
  </g>
<g filter="url(#shadow)">
    <rect x="515" y="170" width="220" height="86" rx="18" fill="#2D1D46" stroke="#C084FC" stroke-opacity=".68"/>
    <rect x="533" y="184" width="74" height="22" rx="11" fill="#C084FC" fill-opacity=".16"/><text x="544" y="200" fill="#D8B4FE" font-family="Inter, PingFang SC, sans-serif" font-size="10" font-weight="750" letter-spacing=".7">STEP 3</text>
    <text x="625" y="223" text-anchor="middle" fill="#FAF5FF" font-family="Inter, PingFang SC, Microsoft YaHei, sans-serif" font-size="17" font-weight="720">配置模型</text>
    <text x="625" y="249" text-anchor="middle" fill="#D8B4FE" font-family="Inter, PingFang SC, Microsoft YaHei, sans-serif" font-size="12.5">Chat + Embedding</text>
  </g>
<g filter="url(#shadow)">
    <rect x="775" y="170" width="190" height="86" rx="18" fill="#1E2455" stroke="#818CF8" stroke-opacity=".68"/>
    <rect x="793" y="184" width="74" height="22" rx="11" fill="#818CF8" fill-opacity=".16"/><text x="804" y="200" fill="#A5B4FC" font-family="Inter, PingFang SC, sans-serif" font-size="10" font-weight="750" letter-spacing=".7">STEP 4</text>
    <text x="870" y="223" text-anchor="middle" fill="#EEF2FF" font-family="Inter, PingFang SC, Microsoft YaHei, sans-serif" font-size="17" font-weight="720">连接测试</text>
    <text x="870" y="249" text-anchor="middle" fill="#A5B4FC" font-family="Inter, PingFang SC, Microsoft YaHei, sans-serif" font-size="12.5">两项均通过</text>
  </g>
<g filter="url(#shadow)">
    <rect x="1005" y="170" width="190" height="86" rx="18" fill="#3A2416" stroke="#FB923C" stroke-opacity=".68"/>
    <rect x="1023" y="184" width="74" height="22" rx="11" fill="#FB923C" fill-opacity=".16"/><text x="1034" y="200" fill="#FDBA74" font-family="Inter, PingFang SC, sans-serif" font-size="10" font-weight="750" letter-spacing=".7">STEP 5</text>
    <text x="1100" y="223" text-anchor="middle" fill="#FFF7ED" font-family="Inter, PingFang SC, Microsoft YaHei, sans-serif" font-size="17" font-weight="720">全量索引</text>
    <text x="1100" y="249" text-anchor="middle" fill="#FDBA74" font-family="Inter, PingFang SC, Microsoft YaHei, sans-serif" font-size="12.5">公开文章入库</text>
  </g>
<g filter="url(#shadow)">
    <rect x="1235" y="170" width="120" height="86" rx="18" fill="#0B352F" stroke="#34D399" stroke-opacity=".68"/>
    <rect x="1253" y="184" width="62" height="22" rx="11" fill="#34D399" fill-opacity=".16"/><text x="1264" y="200" fill="#6EE7B7" font-family="Inter, PingFang SC, sans-serif" font-size="10" font-weight="750" letter-spacing=".7">DONE</text>
    <text x="1295" y="223" text-anchor="middle" fill="#ECFDF5" font-family="Inter, PingFang SC, Microsoft YaHei, sans-serif" font-size="17" font-weight="720">问答</text>
    <text x="1295" y="249" text-anchor="middle" fill="#6EE7B7" font-family="Inter, PingFang SC, Microsoft YaHei, sans-serif" font-size="12.5">回答 + 引用</text>
  </g>
  <text x="1348" y="395" text-anchor="end" fill="#64748B" font-family="Inter, PingFang SC, sans-serif" font-size="11">AI 智能套件 · 0.3.0</text>
</svg>