<svg width="1400" height="680" viewBox="0 0 1400 680" fill="none" xmlns="http://www.w3.org/2000/svg" role="img" aria-labelledby="diagram-title diagram-desc" preserveAspectRatio="xMidYMid meet">
  <title id="diagram-title">访客聊天 SSE 事件顺序</title>
  <desc id="diagram-desc">引用、结构化结果和 logId 是命名事件，token 与 DONE 使用默认 data 事件</desc>
  <defs>
    <linearGradient id="bg" x1="0" y1="0" x2="1" y2="1"><stop stop-color="#08111F"/><stop offset=".55" stop-color="#111C35"/><stop offset="1" stop-color="#17143A"/></linearGradient>
    <pattern id="grid" width="36" height="36" patternUnits="userSpaceOnUse"><path d="M36 0H0V36" fill="none" stroke="#C7D2FE" stroke-opacity=".045"/></pattern>
    <filter id="shadow" x="-25%" y="-30%" width="150%" height="170%"><feDropShadow dx="0" dy="10" stdDeviation="12" flood-color="#020617" flood-opacity=".38"/></filter>
    <marker id="arrow" viewBox="0 0 10 10" refX="8" refY="5" markerWidth="7" markerHeight="7" orient="auto"><path d="M0 0L10 5L0 10Z" fill="#60A5FA"/></marker>
    <marker id="arrowGreen" viewBox="0 0 10 10" refX="8" refY="5" markerWidth="7" markerHeight="7" orient="auto"><path d="M0 0L10 5L0 10Z" fill="#34D399"/></marker>
    <marker id="arrowOrange" viewBox="0 0 10 10" refX="8" refY="5" markerWidth="7" markerHeight="7" orient="auto"><path d="M0 0L10 5L0 10Z" fill="#FB923C"/></marker>
  </defs>
  <rect width="1400" height="680" rx="28" fill="url(#bg)"/>
  <rect width="1400" height="680" rx="28" fill="url(#grid)"/>
  <text x="52" y="58" fill="#F8FAFC" font-family="Inter, PingFang SC, Microsoft YaHei, sans-serif" font-size="28" font-weight="760">访客聊天 SSE 事件顺序</text>
  <text x="52" y="88" fill="#94A3B8" font-family="Inter, PingFang SC, Microsoft YaHei, sans-serif" font-size="14">引用、结构化结果和 logId 是命名事件，token 与 DONE 使用默认 data 事件</text>
  <g filter="url(#shadow)"><rect x="-2" y="122" width="184" height="64" rx="17" fill="#0D2A47" stroke="#38BDF8" stroke-opacity=".7"/><text x="90" y="151" text-anchor="middle" fill="#E0F2FE" font-family="Inter, PingFang SC, sans-serif" font-size="16" font-weight="720">客户端</text><text x="90" y="172" text-anchor="middle" fill="#7DD3FC" font-family="Inter, PingFang SC, sans-serif" font-size="11">ReadableStream</text></g><path d="M90 186V610" stroke="#38BDF8" stroke-opacity=".28" stroke-width="1.5" stroke-dasharray="6 7"/><g filter="url(#shadow)"><rect x="608" y="122" width="184" height="64" rx="17" fill="#1E2455" stroke="#818CF8" stroke-opacity=".7"/><text x="700" y="151" text-anchor="middle" fill="#EEF2FF" font-family="Inter, PingFang SC, sans-serif" font-size="16" font-weight="720">Chat Endpoint</text><text x="700" y="172" text-anchor="middle" fill="#A5B4FC" font-family="Inter, PingFang SC, sans-serif" font-size="11">text/event-stream</text></g><path d="M700 186V610" stroke="#818CF8" stroke-opacity=".28" stroke-width="1.5" stroke-dasharray="6 7"/><g filter="url(#shadow)"><rect x="1218" y="122" width="184" height="64" rx="17" fill="#2D1D46" stroke="#C084FC" stroke-opacity=".7"/><text x="1310" y="151" text-anchor="middle" fill="#FAF5FF" font-family="Inter, PingFang SC, sans-serif" font-size="16" font-weight="720">ChatService</text><text x="1310" y="172" text-anchor="middle" fill="#D8B4FE" font-family="Inter, PingFang SC, sans-serif" font-size="11">Intent / RAG</text></g><path d="M1310 186V610" stroke="#C084FC" stroke-opacity=".28" stroke-width="1.5" stroke-dasharray="6 7"/><path d="M90 230H692" stroke="#60A5FA" stroke-width="2"  marker-end="url(#arrow)"/><rect x="319" y="200" width="152" height="22" rx="11" fill="#0B1220"/><text x="395" y="215" text-anchor="middle" fill="#BFDBFE" font-family="Inter, PingFang SC, sans-serif" font-size="11.5">POST message + history</text><path d="M700 294H1302" stroke="#60A5FA" stroke-width="2"  marker-end="url(#arrow)"/><rect x="963" y="264" width="84" height="22" rx="11" fill="#0B1220"/><text x="1005" y="279" text-anchor="middle" fill="#BFDBFE" font-family="Inter, PingFang SC, sans-serif" font-size="11.5">开始流式问答</text><path d="M1310 358H708" stroke="#34D399" stroke-width="2" stroke-dasharray="7 6" marker-end="url(#arrowGreen)"/><rect x="941" y="328" width="128" height="22" rx="11" fill="#0B1220"/><text x="1005" y="343" text-anchor="middle" fill="#6EE7B7" font-family="Inter, PingFang SC, sans-serif" font-size="11.5">引用 + 结构化结果 + token</text><path d="M700 422H98" stroke="#34D399" stroke-width="2" stroke-dasharray="7 6" marker-end="url(#arrowGreen)"/><rect x="325" y="392" width="140" height="22" rx="11" fill="#0B1220"/><text x="395" y="407" text-anchor="middle" fill="#6EE7B7" font-family="Inter, PingFang SC, sans-serif" font-size="11.5">event: citations（可选）</text><path d="M700 486H98" stroke="#34D399" stroke-width="2" stroke-dasharray="7 6" marker-end="url(#arrowGreen)"/><rect x="301" y="456" width="188" height="22" rx="11" fill="#0B1220"/><text x="395" y="471" text-anchor="middle" fill="#6EE7B7" font-family="Inter, PingFang SC, sans-serif" font-size="11.5">event: structured_result（可选）</text><path d="M700 550H98" stroke="#34D399" stroke-width="2" stroke-dasharray="7 6" marker-end="url(#arrowGreen)"/><rect x="319" y="520" width="152" height="22" rx="11" fill="#0B1220"/><text x="395" y="535" text-anchor="middle" fill="#6EE7B7" font-family="Inter, PingFang SC, sans-serif" font-size="11.5">data: {content: token}</text><path d="M700 614H98" stroke="#34D399" stroke-width="2" stroke-dasharray="7 6" marker-end="url(#arrowGreen)"/><rect x="349" y="584" width="92" height="22" rx="11" fill="#0B1220"/><text x="395" y="599" text-anchor="middle" fill="#6EE7B7" font-family="Inter, PingFang SC, sans-serif" font-size="11.5">event: logId</text><path d="M700 678H98" stroke="#FB923C" stroke-width="2" stroke-dasharray="7 6" marker-end="url(#arrowOrange)"/><rect x="349" y="648" width="92" height="22" rx="11" fill="#0B1220"/><text x="395" y="663" text-anchor="middle" fill="#FDBA74" font-family="Inter, PingFang SC, sans-serif" font-size="11.5">data: [DONE]</text>
  <text x="1348" y="655" text-anchor="end" fill="#64748B" font-family="Inter, PingFang SC, sans-serif" font-size="11">AI 智能套件 · 0.3.2</text>
</svg>